<svg width="24" height="24" viewBox="0 0 24 24" fill="none" xmlns="http://www.w3.org/2000/svg">
<path d="M11.9999 24C18.6273 24 24 18.6274 24 12C24 5.37257 18.6273 0 11.9999 0C5.37246 0 0 5.37257 0 12C0 18.6274 5.37246 24 11.9999 24Z" fill="white"/>
<path d="M8.38288 8.504C7.91354 8.81333 7.29488 8.968 6.52688 8.968V7.288C7.12421 7.256 7.59888 7.10667 7.95088 6.84C8.31354 6.56267 8.58021 6.216 8.75088 5.8H10.6869V17H8.38288V8.504ZM14.336 8.504C13.8667 8.81333 13.248 8.968 12.48 8.968V7.288C13.0773 7.256 13.552 7.10667 13.904 6.84C14.2667 6.56267 14.5333 6.216 14.704 5.8H16.64V17H14.336V8.504Z" fill="#013951"/>
</svg>
