<svg width="24" height="24" viewBox="0 0 24 24" fill="none" xmlns="http://www.w3.org/2000/svg">
<path d="M11.9999 24C18.6273 24 24 18.6274 24 12C24 5.37257 18.6273 0 11.9999 0C5.37246 0 0 5.37257 0 12C0 18.6274 5.37246 24 11.9999 24Z" fill="white"/>
<path d="M11.9964 5.56C12.7537 5.56 13.431 5.73067 14.0284 6.072C14.6364 6.41333 15.1057 6.88267 15.4364 7.48C15.7777 8.06667 15.9484 8.71733 15.9484 9.432C15.9484 10.3173 15.6604 11.2347 15.0844 12.184L12.1404 17H9.74038L12.0604 13.272C12.007 13.2827 11.9324 13.288 11.8364 13.288C11.1217 13.288 10.471 13.1173 9.88438 12.776C9.30838 12.4347 8.85504 11.9707 8.52438 11.384C8.20438 10.7867 8.04438 10.136 8.04438 9.432C8.04438 8.71733 8.20971 8.06667 8.54037 7.48C8.88171 6.88267 9.35104 6.41333 9.94838 6.072C10.5564 5.73067 11.239 5.56 11.9964 5.56ZM11.9964 11.304C12.4764 11.304 12.871 11.128 13.1804 10.776C13.4897 10.4133 13.6444 9.96533 13.6444 9.432C13.6444 8.89867 13.4897 8.456 13.1804 8.104C12.871 7.74133 12.4764 7.56 11.9964 7.56C11.5164 7.56 11.1217 7.74133 10.8124 8.104C10.503 8.456 10.3484 8.89867 10.3484 9.432C10.3484 9.96533 10.503 10.4133 10.8124 10.776C11.1217 11.128 11.5164 11.304 11.9964 11.304Z" fill="#013951"/>
</svg>
