<svg width="24" height="24" viewBox="0 0 24 24" fill="none" xmlns="http://www.w3.org/2000/svg">
<path d="M11.9999 24C18.6273 24 24 18.6274 24 12C24 5.37257 18.6273 0 11.9999 0C5.37246 0 0 5.37257 0 12C0 18.6274 5.37246 24 11.9999 24Z" fill="white"/>
<path d="M12.0057 17.24C11.2057 17.24 10.507 17.0853 9.90969 16.776C9.32302 16.4667 8.86969 16.0507 8.54969 15.528C8.22969 15.0053 8.06969 14.4293 8.06969 13.8C8.06969 13.288 8.17102 12.8347 8.37369 12.44C8.58702 12.0453 8.83235 11.7307 9.10969 11.496C9.38702 11.2507 9.63769 11.08 9.86169 10.984C9.50969 10.8027 9.18969 10.5093 8.90169 10.104C8.61369 9.69867 8.46969 9.20267 8.46969 8.616C8.46969 8.072 8.61369 7.57067 8.90169 7.112C9.20035 6.64267 9.61635 6.26933 10.1497 5.992C10.683 5.704 11.3017 5.56 12.0057 5.56C12.699 5.56 13.3124 5.704 13.8457 5.992C14.379 6.26933 14.7897 6.64267 15.0777 7.112C15.3764 7.58133 15.5257 8.08267 15.5257 8.616C15.5257 9.20267 15.3817 9.69867 15.0937 10.104C14.8057 10.5093 14.4857 10.8027 14.1337 10.984C14.3684 11.08 14.6244 11.2507 14.9017 11.496C15.179 11.7307 15.419 12.0453 15.6217 12.44C15.835 12.8347 15.9417 13.288 15.9417 13.8C15.9417 14.4293 15.7817 15.0053 15.4617 15.528C15.1417 16.0507 14.683 16.4667 14.0857 16.776C13.4884 17.0853 12.795 17.24 12.0057 17.24ZM12.0057 10.184C12.379 10.184 12.6777 10.0613 12.9017 9.816C13.1364 9.56 13.2537 9.23467 13.2537 8.84C13.2537 8.44533 13.1364 8.12533 12.9017 7.88C12.6777 7.63467 12.379 7.512 12.0057 7.512C11.6217 7.512 11.3124 7.63467 11.0777 7.88C10.8537 8.12533 10.7417 8.44533 10.7417 8.84C10.7417 9.23467 10.8537 9.56 11.0777 9.816C11.3124 10.0613 11.6217 10.184 12.0057 10.184ZM12.0057 15.288C12.4857 15.288 12.8697 15.1387 13.1577 14.84C13.4457 14.5307 13.5897 14.136 13.5897 13.656C13.5897 13.176 13.4457 12.7867 13.1577 12.488C12.8697 12.1787 12.4857 12.024 12.0057 12.024C11.5257 12.024 11.1417 12.1787 10.8537 12.488C10.5657 12.7867 10.4217 13.176 10.4217 13.656C10.4217 14.136 10.5657 14.5307 10.8537 14.84C11.1417 15.1387 11.5257 15.288 12.0057 15.288Z" fill="#013951"/>
</svg>
