<svg width="24" height="24" viewBox="0 0 24 24" fill="none" xmlns="http://www.w3.org/2000/svg">
<path d="M11.9999 24C18.6273 24 24 18.6274 24 12C24 5.37257 18.6273 0 11.9999 0C5.37246 0 0 5.37257 0 12C0 18.6274 5.37246 24 11.9999 24Z" fill="white"/>
<path d="M7.086 8.504C6.61667 8.81333 5.998 8.968 5.23 8.968V7.288C5.82733 7.256 6.302 7.10667 6.654 6.84C7.01667 6.56267 7.28333 6.216 7.454 5.8H9.39V17H7.086V8.504ZM11.1831 17C11.1831 16.0293 11.3378 15.2027 11.6471 14.52C11.9565 13.8267 12.3245 13.272 12.7511 12.856C13.1778 12.4293 13.7271 11.9653 14.3991 11.464C14.8151 11.1547 15.1351 10.8987 15.3591 10.696C15.5938 10.4933 15.7858 10.2693 15.9351 10.024C16.0845 9.768 16.1591 9.49067 16.1591 9.192C16.1591 8.744 16.0311 8.392 15.7751 8.136C15.5298 7.86933 15.1885 7.736 14.7511 7.736C14.3031 7.736 13.9405 7.87467 13.6631 8.152C13.3858 8.42933 13.1778 8.73333 13.0391 9.064L11.1991 8.2C11.3378 7.79467 11.5618 7.38933 11.8711 6.984C12.1805 6.57867 12.5911 6.24267 13.1031 5.976C13.6151 5.69867 14.2071 5.56 14.8791 5.56C15.5831 5.56 16.2125 5.71467 16.7671 6.024C17.3218 6.32267 17.7485 6.73867 18.0471 7.272C18.3565 7.79467 18.5111 8.37067 18.5111 9C18.5111 9.576 18.3938 10.088 18.1591 10.536C17.9351 10.9733 17.6578 11.352 17.3271 11.672C16.9965 11.992 16.5591 12.3547 16.0151 12.76C15.4818 13.1547 15.0551 13.5067 14.7351 13.816C14.4258 14.1147 14.1858 14.4507 14.0151 14.824H18.4951V17H11.1831Z" fill="#013951"/>
</svg>
