<svg width="24" height="24" viewBox="0 0 24 24" fill="none" xmlns="http://www.w3.org/2000/svg">
<path d="M11.9999 24C18.6273 24 24 18.6274 24 12C24 5.37257 18.6273 0 11.9999 0C5.37246 0 0 5.37257 0 12C0 18.6274 5.37246 24 11.9999 24Z" fill="white"/>
<path d="M6.25788 8.504C5.78854 8.81333 5.16988 8.968 4.40188 8.968V7.288C4.99921 7.256 5.47388 7.10667 5.82588 6.84C6.18854 6.56267 6.45521 6.216 6.62588 5.8H8.56188V17H6.25788V8.504ZM14.979 17.24C14.1577 17.24 13.411 17.0053 12.739 16.536C12.067 16.056 11.5337 15.3787 11.139 14.504C10.755 13.6187 10.563 12.584 10.563 11.4C10.563 10.216 10.755 9.18133 11.139 8.296C11.5337 7.41067 12.067 6.73333 12.739 6.264C13.411 5.79467 14.1577 5.56 14.979 5.56C15.8003 5.56 16.547 5.79467 17.219 6.264C17.891 6.73333 18.419 7.41067 18.803 8.296C19.1977 9.18133 19.395 10.216 19.395 11.4C19.395 12.584 19.1977 13.6187 18.803 14.504C18.419 15.3787 17.891 16.056 17.219 16.536C16.547 17.0053 15.8003 17.24 14.979 17.24ZM14.979 15.112C15.3737 15.112 15.731 14.9787 16.051 14.712C16.371 14.4347 16.6217 14.0187 16.803 13.464C16.995 12.8987 17.091 12.2107 17.091 11.4C17.091 10.5787 16.995 9.89067 16.803 9.336C16.6217 8.78133 16.371 8.36533 16.051 8.088C15.731 7.81067 15.3737 7.672 14.979 7.672C14.5843 7.672 14.227 7.81067 13.907 8.088C13.587 8.36533 13.331 8.78133 13.139 9.336C12.9577 9.89067 12.867 10.5787 12.867 11.4C12.867 12.2107 12.9577 12.8987 13.139 13.464C13.331 14.0187 13.587 14.4347 13.907 14.712C14.227 14.9787 14.5843 15.112 14.979 15.112Z" fill="#013951"/>
</svg>
