<svg width="24" height="24" viewBox="0 0 24 24" fill="none" xmlns="http://www.w3.org/2000/svg">
<path d="M11.9999 24C18.6273 24 24 18.6274 24 12C24 5.37257 18.6273 0 11.9999 0C5.37246 0 0 5.37257 0 12C0 18.6274 5.37246 24 11.9999 24Z" fill="white"/>
<path d="M12.1564 9.512C12.8817 9.512 13.5324 9.68267 14.1084 10.024C14.6844 10.3653 15.1324 10.8293 15.4524 11.416C15.783 12.0027 15.9484 12.648 15.9484 13.352C15.9484 14.0773 15.7777 14.7387 15.4364 15.336C15.1057 15.9227 14.6364 16.3867 14.0284 16.728C13.431 17.0693 12.7537 17.24 11.9964 17.24C11.239 17.24 10.5564 17.0693 9.94838 16.728C9.35104 16.3867 8.88171 15.9227 8.54037 15.336C8.20971 14.7387 8.04438 14.0773 8.04438 13.352C8.04438 12.456 8.33771 11.544 8.92438 10.616L11.8524 5.8H14.2524L11.9324 9.528C11.9857 9.51733 12.0604 9.512 12.1564 9.512ZM11.9964 15.24C12.4764 15.24 12.871 15.064 13.1804 14.712C13.4897 14.3493 13.6444 13.896 13.6444 13.352C13.6444 12.8187 13.4897 12.376 13.1804 12.024C12.871 11.672 12.4764 11.496 11.9964 11.496C11.5164 11.496 11.1217 11.672 10.8124 12.024C10.503 12.376 10.3484 12.8187 10.3484 13.352C10.3484 13.896 10.503 14.3493 10.8124 14.712C11.1217 15.064 11.5164 15.24 11.9964 15.24Z" fill="#013951"/>
</svg>
